<svg width="20" height="9" viewBox="0 0 20 9" fill="none" xmlns="http://www.w3.org/2000/svg">
<path d="M10.0059 8.41005L10.0059 8.40991L9.99406 8.41005C8.80788 8.42415 7.66417 7.96929 6.81169 7.14456L1.18025 1.45332C1.10456 1.35941 1.06525 1.24112 1.06992 1.12026C1.07478 0.994421 1.12695 0.875052 1.216 0.786005C1.30504 0.696957 1.42441 0.644791 1.55025 0.63993C1.67075 0.635276 1.78868 0.674326 1.88246 0.74957L7.52645 6.39357L7.52633 6.39369L7.53585 6.40272C8.20103 7.03388 9.08304 7.38574 10 7.38574C10.917 7.38574 11.799 7.03388 12.4642 6.40272L12.4643 6.40285L12.4736 6.39357L18.1176 0.749567C18.2113 0.674324 18.3293 0.635276 18.4498 0.63993C18.5756 0.644791 18.695 0.696957 18.784 0.786005C18.8731 0.87505 18.9252 0.994419 18.9301 1.12026C18.9348 1.24113 18.8955 1.35941 18.8198 1.45332L13.1883 7.14456C12.3358 7.96929 11.1921 8.42415 10.0059 8.41005Z" fill="black" stroke="#91919F"/>
</svg>

