<svg width="25" height="27" viewBox="0 0 25 27" fill="none" xmlns="http://www.w3.org/2000/svg">
<path d="M23.9544 10.5337L21.981 8.55243L14.4133 0.975726C13.8706 0.440181 13.1681 0.144104 12.44 0.144104C11.7119 0.144104 11.0093 0.440181 10.4666 0.975726L2.91864 8.59598L0.945303 10.5772C0.812424 10.726 0.721137 10.9138 0.682331 11.1182C0.643525 11.3226 0.658839 11.5351 0.726446 11.7302C0.794053 11.9253 0.911099 12.0948 1.06362 12.2185C1.21614 12.3422 1.3977 12.4149 1.58664 12.4279C1.83655 12.4154 2.07284 12.2987 2.2477 12.1013L2.5733 11.7747V22.9874C2.5733 23.8535 2.88516 24.6842 3.44027 25.2967C3.99537 25.9091 4.74826 26.2532 5.5333 26.2532H19.3466C20.1317 26.2532 20.8846 25.9091 21.4397 25.2967C21.9948 24.6842 22.3066 23.8535 22.3066 22.9874V11.8183L22.6322 12.1448C22.8132 12.3263 23.0488 12.4272 23.2933 12.4279C23.4922 12.4273 23.6864 12.3604 23.8502 12.2359C24.0141 12.1115 24.14 11.9353 24.2115 11.7305C24.283 11.5256 24.2967 11.3017 24.2508 11.0882C24.2049 10.8746 24.1016 10.6813 23.9544 10.5337Z" fill="#7F3DFF"/>
</svg>
