<svg width="21" height="27" viewBox="0 0 21 27" fill="none" xmlns="http://www.w3.org/2000/svg">
<path d="M10.6001 13.0888C13.8696 13.0888 16.5201 10.1645 16.5201 6.55716C16.5201 2.94983 13.8696 0.0255127 10.6001 0.0255127C7.33053 0.0255127 4.68005 2.94983 4.68005 6.55716C4.68005 10.1645 7.33053 13.0888 10.6001 13.0888Z" fill="#C6C6C6"/>
<path d="M13.5601 15.1898H7.64006C5.8083 15.1898 4.05157 15.9927 2.75631 17.4217C1.46106 18.8508 0.733398 20.7891 0.733398 22.8101C0.733398 23.6762 1.04525 24.5069 1.60036 25.1194C2.15547 25.7318 2.90836 26.0759 3.6934 26.0759H17.5067C18.2918 26.0759 19.0447 25.7318 19.5998 25.1194C20.1549 24.5069 20.4667 23.6762 20.4667 22.8101C20.4667 20.7891 19.7391 18.8508 18.4438 17.4217C17.1486 15.9927 15.3918 15.1898 13.5601 15.1898Z" fill="#C6C6C6"/>
</svg>
