<svg width="25" height="27" viewBox="0 0 25 27" fill="none" xmlns="http://www.w3.org/2000/svg">
<path d="M24.3734 12.1013H13.52V0.126587C16.3233 0.37519 18.9549 1.71664 20.9436 3.91074C22.9322 6.10485 24.148 9.00832 24.3734 12.1013Z" fill="#C6C6C6"/>
<path d="M24.3734 14.2785C24.177 16.7557 23.3438 19.1196 21.9718 21.0925C20.5998 23.0653 18.7459 24.5651 16.628 25.4156C14.5101 26.2661 12.2162 26.432 10.0158 25.8938C7.81541 25.3556 5.79995 24.1357 4.20626 22.3773C2.61257 20.619 1.50685 18.3953 1.01905 15.9675C0.531243 13.5398 0.68161 11.0089 1.45248 8.67217C2.22336 6.33545 3.58271 4.29004 5.3708 2.77627C7.1589 1.2625 9.30145 0.343269 11.5467 0.126587V13.1899C11.5467 13.4786 11.6507 13.7555 11.8357 13.9596C12.0207 14.1638 12.2717 14.2785 12.5334 14.2785H24.3734Z" fill="#C6C6C6"/>
</svg>
