<svg width="29" height="25" viewBox="0 0 29 25" fill="none" xmlns="http://www.w3.org/2000/svg">
<path d="M18.5816 14.2909V15.3795C18.5816 16.0943 18.454 16.8021 18.2061 17.4625C17.9581 18.1228 17.5948 18.7229 17.1367 19.2283C16.6786 19.7337 16.1347 20.1347 15.5362 20.4082C14.9376 20.6817 14.2961 20.8225 13.6483 20.8225H10.4317C10.4165 21.4179 10.254 21.9973 9.96186 22.4981C9.6697 22.9989 9.25897 23.402 8.77413 23.6638C8.36975 23.8867 7.92376 24.0023 7.47173 24.0013C6.80303 24.0056 6.1527 23.7601 5.62666 23.3046L1.96613 20.1367C1.60961 19.8314 1.32108 19.4403 1.1226 18.9931C0.92411 18.5459 0.820923 18.0546 0.820923 17.5567C0.820923 17.0588 0.92411 16.5675 1.1226 16.1203C1.32108 15.6731 1.60961 15.282 1.96613 14.9767L5.62666 11.8089C6.0677 11.4205 6.60016 11.1793 7.1613 11.1137C7.72244 11.0482 8.28887 11.1609 8.79386 11.4387C9.4663 11.7936 9.98417 12.4276 10.2344 13.2023H17.5653C17.6974 13.1979 17.8289 13.2228 17.952 13.2756C18.0752 13.3283 18.1874 13.4078 18.2822 13.5093C18.377 13.6109 18.4523 13.7324 18.5038 13.8666C18.5552 14.0009 18.5817 14.1451 18.5816 14.2909Z" fill="#7F3DFF"/>
<path d="M28.1918 6.82305C28.1918 7.3209 28.0888 7.81218 27.8904 8.25934C27.692 8.7065 27.4036 9.0977 27.0472 9.40305L23.3867 12.5709C22.8533 13.0282 22.1974 13.2771 21.5219 13.2785C21.0699 13.2795 20.6239 13.1639 20.2195 12.941C19.5471 12.5862 19.0292 11.9522 18.779 11.1775H11.4184C11.1567 11.1775 10.9058 11.0628 10.7208 10.8586C10.5357 10.6545 10.4318 10.3776 10.4318 10.0889V9.00026C10.4318 7.55668 10.9515 6.17222 11.8767 5.15145C12.8019 4.13069 14.0567 3.55722 15.3651 3.55722H18.5816C18.5936 2.94864 18.7596 2.35587 19.0607 1.84581C19.3618 1.33574 19.7862 0.928693 20.2859 0.670588C20.7856 0.412483 21.3407 0.313598 21.8886 0.385092C22.4365 0.456586 22.9554 0.695613 23.3867 1.0752L27.0472 4.24305C27.4036 4.54839 27.692 4.9396 27.8904 5.38676C28.0888 5.83392 28.1918 6.3252 28.1918 6.82305V6.82305Z" fill="#7F3DFF"/>
</svg>
